<?xml version="1.0" standalone="no"?>
<!DOCTYPE svg PUBLIC "-//W3C//DTD SVG 20010904//EN"
 "http://www.w3.org/TR/2001/REC-SVG-20010904/DTD/svg10.dtd">
<svg version="1.0" xmlns="http://www.w3.org/2000/svg"
 width="22.000000pt" height="20.000000pt" viewBox="0 0 50.000000 50.000000"
 preserveAspectRatio="xMidYMid meet">

<g transform="translate(0.000000,50.000000) scale(0.100000,-0.100000)"
fill="#7358FA" stroke="none">
<path d="M150 436 c0 -42 -2 -45 -36 -56 -41 -14 -58 -5 -30 16 21 15 21 16
-11 33 -22 11 -23 10 -23 -30 0 -26 -7 -50 -20 -66 -17 -22 -20 -41 -20 -130
0 -103 0 -105 30 -133 40 -37 108 -55 210 -55 102 0 170 18 210 55 30 28 30
30 30 133 0 89 -3 108 -20 130 -24 30 -26 55 -5 63 22 9 18 19 -10 32 -24 11
-25 10 -25 -23 0 -39 -3 -40 -49 -24 -33 12 -43 45 -16 55 22 9 18 19 -10 32
-25 11 -25 11 -25 -31 l0 -42 -80 0 c-70 0 -80 2 -80 18 0 10 7 20 15 23 22 9
18 19 -10 32 -25 11 -25 11 -25 -32z m170 -71 c0 -12 -14 -15 -70 -15 -56 0
-70 3 -70 15 0 12 14 15 70 15 56 0 70 -3 70 -15z m-165 -14 c0 -7 -14 -19
-32 -26 -27 -11 -34 -11 -44 1 -9 11 -5 17 22 29 38 16 54 15 54 -4z m242 4
c29 -12 33 -18 23 -29 -9 -12 -17 -13 -38 -4 -37 16 -45 24 -38 37 9 14 10 14
53 -4z m-337 -71 c-7 -7 -16 -14 -21 -14 -13 0 -11 34 3 48 18 18 34 -14 18
-34z m248 34 c-6 -18 -110 -18 -115 0 -4 9 12 12 57 12 45 0 61 -3 58 -12z
m162 -29 c0 -11 -4 -19 -9 -19 -16 0 -31 27 -25 44 8 21 34 2 34 -25z m-297
18 c3 -8 -8 -17 -29 -23 -40 -13 -49 6 -11 24 30 14 34 14 40 -1z m192 1 c39
-18 33 -37 -9 -24 -21 6 -32 15 -29 23 6 16 6 16 38 1z m-284 -61 c-16 -16
-26 0 -10 19 9 11 15 12 17 4 2 -6 -1 -17 -7 -23z m283 12 c46 -22 42 -36 -14
-48 -65 -14 -135 -14 -200 0 -51 11 -59 19 -37 37 39 32 193 39 251 11z m74
-15 c-10 -10 -28 6 -28 24 0 15 1 15 17 -1 9 -9 14 -19 11 -23z m-301 -49
c101 -26 242 -12 308 31 l25 16 0 -69 c0 -78 -8 -91 -73 -118 -61 -25 -67 -22
-67 40 l0 55 -80 0 -80 0 0 -55 c0 -62 -6 -65 -67 -40 -65 27 -73 40 -73 118
l0 69 25 -16 c13 -9 50 -23 82 -31z m173 -115 l0 -50 -60 0 -60 0 0 50 0 50
60 0 60 0 0 -50z"/>
</g>
</svg>
