<svg id="logo_coex" data-name="logo / coex" xmlns="http://www.w3.org/2000/svg" width="90" height="40" viewBox="0 0 10 72.448">
  <path id="Trazado_21029" data-name="Trazado 21029" d="M-737.631,269.518a2.551,2.551,0,0,1-2.295,2.3s-.991.285-2.593-1.2a10.209,10.209,0,0,0-6.9-2.562A10.569,10.569,0,0,0-760,278.769a10.607,10.607,0,0,0,10.169,10.4,10.294,10.294,0,0,0,8.991-4.389,6.4,6.4,0,0,0,.483-.837,2.659,2.659,0,0,1,.4-.631,2.655,2.655,0,0,1,2.022-.93,2.664,2.664,0,0,1,2.666,2.661,1.944,1.944,0,0,1-.073.618,4.232,4.232,0,0,1-.527,1.066c-.137.2-.451.609-.583.808a15.259,15.259,0,0,1-12.978,6.816,15.744,15.744,0,0,1-15.752-15.736,15.745,15.745,0,0,1,15.752-15.737,15.262,15.262,0,0,1,10.36,3.883A3.726,3.726,0,0,1-737.631,269.518Z" transform="translate(785.699 -242.403)" fill="#161616"/>
  <path id="Trazado_21030" data-name="Trazado 21030" d="M-730.1,217.71a36.1,36.1,0,0,1,34.37,36.189,36.113,36.113,0,0,1-2.106,12.2h0a2.533,2.533,0,0,1-.308.832,2.627,2.627,0,0,1-2.637,1.282,2.632,2.632,0,0,1-2.251-2.4,2.6,2.6,0,0,1,.1-.922,2.266,2.266,0,0,1,.14-.377,30.944,30.944,0,0,0,1.863-10.611,31.056,31.056,0,0,0-29.467-31l-.754-.029a2.484,2.484,0,0,1-2.151-2.578,2.621,2.621,0,0,1,2.146-2.577l.46-.029Z" transform="translate(768.287 -217.686)" fill="#161616"/>
  <path id="Trazado_21031" data-name="Trazado 21031" d="M-810.425,290.644a36.255,36.255,0,0,0,36.276,36.236,30.229,30.229,0,0,0,7.6-.8l1.061-.248a2.627,2.627,0,0,0,1.574-1.038,2.609,2.609,0,0,0,.463-1.489,2.633,2.633,0,0,0-1.448-2.352,2.538,2.538,0,0,0-1.542-.209l-.3.048c-.207.054-.063.015-.272.064a31.146,31.146,0,0,1-7.139.824,31.055,31.055,0,0,1-31.072-31.038l.168-2.933a2.664,2.664,0,0,0-2.45-2.834c-.054,0-.108,0-.163,0s-.117,0-.174.005a2.626,2.626,0,0,0-2.406,2.5Z" transform="translate(810.425 -254.432)" fill="#161616"/>
  <path id="Trazado_21032" data-name="Trazado 21032" d="M-776.211,250.341a21.919,21.919,0,0,1,16.275-7.268,22.025,22.025,0,0,1,22.028,21.788A21.959,21.959,0,0,1-759.88,286.97a21.96,21.96,0,0,1-18.5-10.107c-.4-.628-.65-1.2-1.068-1.965a4.131,4.131,0,0,0-.322-.544,2.624,2.624,0,0,0-1.676-1h-.005a2.569,2.569,0,0,0-.4-.03,1.875,1.875,0,0,0-.2.009h-.005c-.056,0-.112.01-.168.018a2.493,2.493,0,0,0-1.886,3.462l.437,1.023a27.021,27.021,0,0,0,23.79,14.178,27.011,27.011,0,0,0,27.026-27.195,27.087,27.087,0,0,0-26.954-26.8c-8.114-.021-15.069,3.586-20.35,9.059a3.868,3.868,0,0,0-.819,1.065,2.605,2.605,0,0,0-.271,1.16,2.622,2.622,0,0,0,2.151,2.579S-777.695,252.2-776.211,250.341Z" transform="translate(796.155 -228.809)" fill="#c9231b"/>
  <path id="Trazado_21033" data-name="Trazado 21033" d="M-695.847,359.647a2.531,2.531,0,0,1-.046.483,2.537,2.537,0,0,1-.308.832,2.625,2.625,0,0,1-2.271,1.307,2.624,2.624,0,0,1-2.624-2.623,2.571,2.571,0,0,1,.1-.724,2.315,2.315,0,0,1,.14-.377,2.624,2.624,0,0,1,2.381-1.519A2.623,2.623,0,0,1-695.847,359.647Z" transform="translate(750.684 -293.894)" fill="#c9231b"/>
  <path id="Trazado_21034" data-name="Trazado 21034" d="M-682.089,350.161a2.54,2.54,0,0,1-.046.483,2.539,2.539,0,0,1-.308.832,2.625,2.625,0,0,1-2.271,1.307,2.623,2.623,0,0,1-2.624-2.622,2.57,2.57,0,0,1,.1-.724,2.278,2.278,0,0,1,.14-.377,2.623,2.623,0,0,1,2.381-1.519A2.623,2.623,0,0,1-682.089,350.161Z" transform="translate(743.167 -288.706)" fill="#c9231b"/>
  <path id="Trazado_21035" data-name="Trazado 21035" d="M-801.445,271.9a2.541,2.541,0,0,1-.045.483,2.529,2.529,0,0,1-.309.832,2.625,2.625,0,0,1-2.271,1.307,2.623,2.623,0,0,1-2.623-2.622,2.583,2.583,0,0,1,.1-.724,2.357,2.357,0,0,1,.14-.377,2.624,2.624,0,0,1,2.381-1.519A2.623,2.623,0,0,1-801.445,271.9Z" transform="translate(808.386 -245.901)" fill="#c9231b"/>
  <path id="Trazado_21036" data-name="Trazado 21036" d="M-794.166,255.745a2.529,2.529,0,0,1-.046.483,2.53,2.53,0,0,1-.308.832,2.626,2.626,0,0,1-2.271,1.307,2.623,2.623,0,0,1-2.623-2.622,2.57,2.57,0,0,1,.1-.724,2.3,2.3,0,0,1,.14-.377,2.623,2.623,0,0,1,2.381-1.519A2.623,2.623,0,0,1-794.166,255.745Z" transform="translate(804.409 -237.068)" fill="#c9231b"/>
  <path id="Trazado_21037" data-name="Trazado 21037" d="M-784.94,245.881a1.23,1.23,0,0,1-.022.236,1.246,1.246,0,0,1-.151.406,1.284,1.284,0,0,1-1.109.638,1.282,1.282,0,0,1-1.282-1.281,1.251,1.251,0,0,1,.05-.354,1.114,1.114,0,0,1,.068-.184,1.281,1.281,0,0,1,1.163-.742A1.282,1.282,0,0,1-784.94,245.881Z" transform="translate(797.9 -232.406)" fill="#c9231b"/>
</svg>
